<svg width="1500" height="1500" viewBox="0 0 1500 1500" fill="none" xmlns="http://www.w3.org/2000/svg">
<path opacity="0.883" fill-rule="evenodd" clip-rule="evenodd" d="M591.5 202.5C610.801 201.967 619.634 211.3 618 230.5C614.399 240.149 607.399 245.482 597 246.5C577.7 242.577 571.367 231.243 578 212.5C581.531 207.795 586.031 204.462 591.5 202.5ZM594.5 211.5C605.081 211.676 609.914 217.01 609 227.5C604.731 236.386 598.231 238.552 589.5 234C581.713 224.317 583.38 216.817 594.5 211.5Z" fill="#333366" fill-opacity="0.62"/>
<path opacity="0.94" fill-rule="evenodd" clip-rule="evenodd" d="M750.5 246.5C753.5 246.5 756.5 246.5 759.5 246.5C759.5 250.5 759.5 254.5 759.5 258.5C763.5 258.5 767.5 258.5 771.5 258.5C771.5 261.167 771.5 263.833 771.5 266.5C767.5 266.5 763.5 266.5 759.5 266.5C759.5 270.5 759.5 274.5 759.5 278.5C756.5 278.5 753.5 278.5 750.5 278.5C750.5 274.5 750.5 270.5 750.5 266.5C746.5 266.5 742.5 266.5 738.5 266.5C738.5 263.833 738.5 261.167 738.5 258.5C742.5 258.5 746.5 258.5 750.5 258.5C750.5 254.5 750.5 250.5 750.5 246.5Z" fill="#CDD9DB"/>
<path opacity="0.956" fill-rule="evenodd" clip-rule="evenodd" d="M425.5 267.5C455.999 266.334 474.499 280.667 481 310.5C481.908 319.959 480.242 328.959 476 337.5C471.667 343.833 467.333 350.167 463 356.5C461.907 362.525 461.241 368.525 461 374.5C455.674 381.21 448.841 383.376 440.5 381C438.714 380.215 437.214 379.049 436 377.5C433.667 373.5 431.333 369.5 429 365.5C424.445 357.111 424.445 348.778 429 340.5C434 336.167 439 331.833 444 327.5C451.067 318.411 450.567 309.578 442.5 301C431.097 295.747 420.93 297.58 412 306.5C411.138 308.087 410.471 309.754 410 311.5C409.667 318.167 409.333 324.833 409 331.5C406.635 337.605 402.135 340.605 395.5 340.5C388.867 340.032 384.367 336.699 382 330.5C374.795 303.407 383.961 283.907 409.5 272C414.874 270.16 420.207 268.66 425.5 267.5Z" fill="#333366" fill-opacity="0.62"/>
<path opacity="0.993" fill-rule="evenodd" clip-rule="evenodd" d="M1071.5 1015.5C1050.23 962.04 1011.23 930.707 954.5 921.5C955.5 802.668 955.833 683.668 955.5 564.5C926.329 564.831 897.329 564.498 868.5 563.5C897.835 563.667 927.169 563.5 956.5 563C917.667 526.833 878.833 490.667 840 454.5C839.809 456.708 839.309 458.708 838.5 460.5C838.5 458.167 838.5 455.833 838.5 453.5C760.833 453.5 683.167 453.5 605.5 453.5C605.333 429.831 605.5 406.164 606 382.5C610.616 361.217 623.449 347.717 644.5 342C774.804 340.344 905.137 340.01 1035.5 341C1062 344.833 1077.17 360 1081 386.5C1081.67 587.833 1081.67 789.167 1081 990.5C1080.08 999.77 1076.91 1008.1 1071.5 1015.5Z" fill="#333366" fill-opacity="0.44"/>
<path opacity="0.925" fill-rule="evenodd" clip-rule="evenodd" d="M460.5 386.5C476.73 387.641 481.73 395.641 475.5 410.5C470.09 414.79 464.09 415.957 457.5 414C454.667 412.5 452.5 410.333 451 407.5C448.309 397.563 451.476 390.563 460.5 386.5Z" fill="#333366" fill-opacity="0.62"/>
<path opacity="0.998" fill-rule="evenodd" clip-rule="evenodd" d="M605.5 453.5C683.167 453.5 760.833 453.5 838.5 453.5C838.5 455.833 838.5 458.167 838.5 460.5C836.804 487.155 835.638 513.822 835 540.5C841.079 555.39 852.246 563.057 868.5 563.5C897.329 564.498 926.329 564.831 955.5 564.5C955.833 683.668 955.5 802.668 954.5 921.5C935.556 919.289 916.89 920.622 898.5 925.5C898.167 925.5 897.833 925.5 897.5 925.5C897.5 919.167 897.5 912.833 897.5 906.5C779.833 906.5 662.167 906.5 544.5 906.5C544.5 912.833 544.5 919.167 544.5 925.5C661.167 926.167 777.833 926.833 894.5 927.5C885.906 930.311 877.573 933.811 869.5 938C861.996 942.689 854.662 947.522 847.5 952.5C746.5 952.5 645.5 952.5 544.5 952.5C544.5 958.833 544.5 965.167 544.5 971.5C639.335 971.167 734.001 971.501 828.5 972.5C822.418 980.325 817.085 988.658 812.5 997.5C723.167 997.5 633.833 997.5 544.5 997.5C544.5 1004.17 544.5 1010.83 544.5 1017.5C631.002 1017.17 717.335 1017.5 803.5 1018.5C797.656 1038.47 795.99 1058.81 798.5 1079.5C705.814 1079.98 613.147 1079.48 520.5 1078C498.887 1072.72 485.721 1059.22 481 1037.5C480.333 856.5 480.333 675.5 481 494.5C485.842 472.324 499.342 458.824 521.5 454C549.498 453.5 577.498 453.333 605.5 453.5Z" fill="#EBEFF2"/>
<path fill-rule="evenodd" clip-rule="evenodd" d="M868.5 563.5C852.246 563.057 841.079 555.39 835 540.5C835.638 513.822 836.804 487.155 838.5 460.5C839.309 458.708 839.809 456.708 840 454.5C878.833 490.667 917.667 526.833 956.5 563C927.169 563.5 897.835 563.667 868.5 563.5Z" fill="#ACBFC6"/>
<path fill-rule="evenodd" clip-rule="evenodd" d="M527.5 487.5C529.308 487.491 530.975 487.991 532.5 489C539.015 495.348 545.348 501.848 551.5 508.5C557.985 501.514 564.652 494.681 571.5 488C577.144 487.98 579.644 490.814 579 496.5C572.455 502.71 566.289 509.21 560.5 516C566.289 522.79 572.455 529.29 579 535.5C579.868 539.672 578.368 542.838 574.5 545C573.092 545.315 571.759 544.982 570.5 544C563.985 537.652 557.652 531.152 551.5 524.5C544.348 531.152 537.348 537.985 530.5 545C525.547 544.378 523.047 541.545 523 536.5C529.833 529.667 536.667 522.833 543.5 516C536.698 510.199 530.198 504.032 524 497.5C522.813 495.956 522.48 494.289 523 492.5C524.707 490.963 526.207 489.296 527.5 487.5Z" fill="#333366" fill-opacity="0.62"/>
<path opacity="0.882" fill-rule="evenodd" clip-rule="evenodd" d="M438.5 507.5C446.167 507.5 453.833 507.5 461.5 507.5C461.5 510.5 461.5 513.5 461.5 516.5C452.412 516.118 443.412 516.785 434.5 518.5C433.558 518.392 432.725 518.059 432 517.5C431.178 514.883 430.678 512.216 430.5 509.5C433.373 509.198 436.039 508.531 438.5 507.5Z" fill="#333366"/>
<path opacity="0.838" fill-rule="evenodd" clip-rule="evenodd" d="M403.5 526.5C406.582 528.075 409.249 530.242 411.5 533C405.434 540.029 402.434 548.196 402.5 557.5C399.167 557.5 395.833 557.5 392.5 557.5C392.806 545.911 396.473 535.578 403.5 526.5Z" fill="#333366"/>
<path opacity="0.795" fill-rule="evenodd" clip-rule="evenodd" d="M392.5 585.5C395.833 585.5 399.167 585.5 402.5 585.5C402.5 595.833 402.5 606.167 402.5 616.5C399.167 616.5 395.833 616.5 392.5 616.5C392.5 606.167 392.5 595.833 392.5 585.5Z" fill="#333366"/>
<path opacity="0.94" fill-rule="evenodd" clip-rule="evenodd" d="M1149.5 596.5C1152.5 596.5 1155.5 596.5 1158.5 596.5C1158.5 600.5 1158.5 604.5 1158.5 608.5C1162.5 608.5 1166.5 608.5 1170.5 608.5C1170.5 611.167 1170.5 613.833 1170.5 616.5C1166.5 616.5 1162.5 616.5 1158.5 616.5C1158.5 620.5 1158.5 624.5 1158.5 628.5C1155.5 628.5 1152.5 628.5 1149.5 628.5C1149.5 624.5 1149.5 620.5 1149.5 616.5C1145.5 616.5 1141.5 616.5 1137.5 616.5C1137.5 613.833 1137.5 611.167 1137.5 608.5C1141.5 608.5 1145.5 608.5 1149.5 608.5C1149.5 604.5 1149.5 600.5 1149.5 596.5Z" fill="#CDD9DB"/>
<path d="M611.464 641.704C614.132 637.594 617.526 634.358 621.65 631.99C629.168 631.452 634.572 632.919 637.992 636.259C641.415 639.602 642.963 644.935 642.506 652.39C640.598 657.206 637.912 660.496 634.479 662.332C631.04 664.172 626.779 664.59 621.654 663.521C616.862 661.403 613.664 658.53 611.985 654.931C610.307 651.335 610.11 646.94 611.464 641.704Z" fill="#333366" fill-opacity="0.7" stroke="black"/>
<path d="M785.847 636.131C788.185 634.645 790.462 633.181 792.677 631.741C797.89 631.071 802.194 631.802 805.631 633.88C809.072 635.961 811.703 639.428 813.498 644.343C813.352 652.431 811.261 657.85 807.374 660.785C803.486 663.721 797.647 664.289 789.719 662.299C784.684 658.535 781.91 654.496 781.273 650.195C780.636 645.893 782.119 641.213 785.847 636.131Z" fill="#333366" fill-opacity="0.7" stroke="black"/>
<path opacity="0.795" fill-rule="evenodd" clip-rule="evenodd" d="M392.5 644.5C395.833 644.5 399.167 644.5 402.5 644.5C402.5 654.833 402.5 665.167 402.5 675.5C399.167 675.5 395.833 675.5 392.5 675.5C392.5 665.167 392.5 654.833 392.5 644.5Z" fill="#333366"/>
<path d="M719.61 682.512L719.588 682.507L719.566 682.504C707.737 680.938 697.301 682.29 688.281 686.589C679.26 690.888 671.693 698.117 665.572 708.241L665.562 708.258L665.553 708.276C663.481 712.415 661.978 716.732 661.046 721.227C660.6 721.614 660.279 722.08 660.098 722.624C659.955 723.052 659.904 723.512 659.935 724H659.922H659.906H659.891H659.875H659.859H659.844H659.828H659.812H659.797H659.781H659.766H659.75H659.734H659.719H659.703H659.687H659.672H659.656H659.641H659.625H659.609H659.594H659.578H659.562H659.547H659.531H659.516H659.5H659.484H659.469H659.453H659.437H659.422H659.406H659.391H659.375H659.359H659.344H659.328H659.312H659.297H659.281H659.266H659.25H659.234H659.219H659.203H659.187H659.172H659.156H659.141H659.125H659.109H659.094H659.078H659.062H659.047H659.031H659.016H659H658.984H658.969H658.953H658.937H658.922H658.906H658.891H658.875H658.859H658.844H658.828H658.812H658.797H658.781H658.766H658.75H658.734H658.719H658.703H658.687H658.672H658.656H658.641H658.625H658.609H658.594H658.578H658.562H658.547H658.531H658.516H658.5H658.484H658.469H658.453H658.437H658.422H658.406H658.391H658.375H658.359H658.344H658.328H658.312H658.297H658.281H658.266H658.25H658.234H658.219H658.203H658.187H658.172H658.156H658.141H658.125H658.109H658.094H658.078H658.062H658.047H658.031H658.016H658H657.984H657.969H657.953H657.937H657.922H657.906H657.891H657.875H657.859H657.844H657.828H657.812H657.797H657.781H657.766H657.75H657.734H657.719H657.703H657.687H657.672H657.656H657.641H657.625H657.609H657.594H657.578H657.562H657.547H657.531H657.516H657.5H657.484H657.469H657.453H657.437H657.422H657.406H657.391H657.375H657.359H657.344H657.328H657.312H657.297H657.281H657.266H657.25H657.234H657.219H657.203H657.187H657.172H657.156H657.141H657.125H657.109H657.094H657.078H657.062H657.047H657.031H657.016H657H656.984H656.969H656.953H656.937H656.922H656.906H656.891H656.875H656.859H656.844H656.828H656.812H656.797H656.781H656.766H656.75H656.734H656.719H656.703H656.687H656.672H656.656H656.641H656.625H656.609H656.594H656.578H656.562H656.547H656.531H656.516H656.5H656.484H656.469H656.453H656.438H656.422H656.406H656.391H656.375H656.359H656.344H656.328H656.313H656.297H656.281H656.266H656.25H656.234H656.219H656.203H656.188H656.172H656.156H656.141H656.125H656.109H656.094H656.078H656.063H656.047H656.031H656.016H656H655.984H655.969H655.953H655.938H655.922H655.906H655.891H655.875H655.859H655.844H655.828H655.813H655.797H655.781H655.766H655.75H655.734H655.719H655.703H655.688H655.672H655.656H655.641H655.625H655.609H655.594H655.578H655.563H655.547H655.531H655.516H655.5H655.484H655.469H655.453H655.438H655.422H655.406H655.391H655.375H655.359H655.344H655.328H655.313H655.297H655.281H655.266H655.25H655.234H655.219H655.203H655.188H655.172H655.156H655.141H655.125H655.109H655.094H655.078H655.063H655.047H655.031H655.016H655H654.984H654.969H654.953H654.938H654.922H654.906H654.891H654.875H654.859H654.844H654.828H654.813H654.797H654.781H654.766H654.75H654.734H654.719H654.703H654.688H654.672H654.656H654.641H654.625H654.609H654.594H654.578H654.563H654.547H654.531H654.516H654.5H654.484H654.469H654.453H654.438H654.422H654.406H654.391H654.375H654.359H654.344H654.328H654.313H654.297H654.281H654.266H654.25H654.234H654.219H654.203H654.188H654.172H654.156H654.141H654.125H654.109H654.094H654.078H654.063H654.047H654.031H654.016H654H653.984H653.969H653.953H653.938H653.922H653.906H653.891H653.875H653.859H653.844H653.828H653.813H653.797H653.781H653.766H653.75H653.734H653.719H653.703H653.688H653.672H653.656H653.641H653.625H653.609H653.594H653.578H653.563H653.547H653.531H653.516H653.5H653.484H653.469H653.453H653.438H653.422H653.406H653.391H653.375H653.359H653.344H653.328H653.313H653.297H653.281H653.266H653.25H653.234H653.219H653.203H653.188H653.172H653.156H653.141H653.125H653.109H653.102C657.573 700.612 671.07 684.789 693.641 676.481C708.166 673.276 721.065 673.959 732.361 678.494C743.66 683.03 753.4 691.438 761.572 703.758C764.762 709.596 766.892 715.776 767.961 722.301C766.066 723.861 763.734 724.459 760.917 724.059C758.498 712.839 753.875 703.752 747.031 696.824C740.119 689.828 730.969 685.063 719.61 682.512Z" fill="#333366" fill-opacity="0.7" stroke="black"/>
<path opacity="0.879" fill-rule="evenodd" clip-rule="evenodd" d="M1208.5 700.5C1231.15 698.655 1241.65 708.988 1240 731.5C1236 742.838 1228 749.172 1216 750.5C1196.28 747.445 1188.28 736.112 1192 716.5C1195.44 708.893 1200.94 703.56 1208.5 700.5ZM1211.5 709.5C1224.3 708.801 1230.8 714.801 1231 727.5C1226.16 740.335 1217.66 743.502 1205.5 737C1197.35 725.475 1199.35 716.308 1211.5 709.5Z" fill="#333366" fill-opacity="0.62"/>
<path opacity="0.822" fill-rule="evenodd" clip-rule="evenodd" d="M392.5 703.5C395.833 703.5 399.167 703.5 402.5 703.5C402.5 713.5 402.5 723.5 402.5 733.5C399.167 733.5 395.833 733.5 392.5 733.5C392.5 723.5 392.5 713.5 392.5 703.5Z" fill="#333366"/>
<path fill-rule="evenodd" clip-rule="evenodd" d="M661.5 721.5C661.5 722.833 661.5 724.167 661.5 725.5C658.287 725.81 655.287 725.477 652.5 724.5C655.167 724.5 657.833 724.5 660.5 724.5C660.263 723.209 660.596 722.209 661.5 721.5Z" fill="#ABBFC7"/>
<path fill-rule="evenodd" clip-rule="evenodd" d="M768.5 722.5C769.404 723.209 769.737 724.209 769.5 725.5C766.287 725.81 763.287 725.477 760.5 724.5C763.698 725.036 766.365 724.369 768.5 722.5Z" fill="#AABEC6"/>
<path opacity="0.822" fill-rule="evenodd" clip-rule="evenodd" d="M392.5 762.5C395.833 762.5 399.167 762.5 402.5 762.5C402.5 772.5 402.5 782.5 402.5 792.5C399.167 792.5 395.833 792.5 392.5 792.5C392.5 782.5 392.5 772.5 392.5 762.5Z" fill="#333366"/>
<path fill-rule="evenodd" clip-rule="evenodd" d="M544.5 814.5C662.167 814.5 779.833 814.5 897.5 814.5C897.5 821.167 897.5 827.833 897.5 834.5C779.833 834.5 662.167 834.5 544.5 834.5C544.5 827.833 544.5 821.167 544.5 814.5Z" fill="#333366" fill-opacity="0.5"/>
<path opacity="0.795" fill-rule="evenodd" clip-rule="evenodd" d="M392.5 820.5C395.833 820.5 399.167 820.5 402.5 820.5C402.5 830.833 402.5 841.167 402.5 851.5C399.167 851.5 395.833 851.5 392.5 851.5C392.5 841.167 392.5 830.833 392.5 820.5Z" fill="#333366"/>
<path opacity="0.94" fill-rule="evenodd" clip-rule="evenodd" d="M329.5 837.5C332.5 837.5 335.5 837.5 338.5 837.5C338.5 841.5 338.5 845.5 338.5 849.5C342.5 849.5 346.5 849.5 350.5 849.5C350.5 852.167 350.5 854.833 350.5 857.5C346.5 857.5 342.5 857.5 338.5 857.5C338.5 861.5 338.5 865.5 338.5 869.5C335.5 869.5 332.5 869.5 329.5 869.5C329.5 865.5 329.5 861.5 329.5 857.5C325.5 857.5 321.5 857.5 317.5 857.5C317.5 854.833 317.5 852.167 317.5 849.5C321.5 849.5 325.5 849.5 329.5 849.5C329.5 845.5 329.5 841.5 329.5 837.5Z" fill="#333366" fill-opacity="0.62"/>
<path fill-rule="evenodd" clip-rule="evenodd" d="M544.5 860.5C662.167 860.5 779.833 860.5 897.5 860.5C897.5 866.833 897.5 873.167 897.5 879.5C779.833 879.5 662.167 879.5 544.5 879.5C544.5 873.167 544.5 866.833 544.5 860.5Z" fill="#333366" fill-opacity="0.5"/>
<path opacity="0.795" fill-rule="evenodd" clip-rule="evenodd" d="M392.5 879.5C395.833 879.5 399.167 879.5 402.5 879.5C402.5 889.833 402.5 900.167 402.5 910.5C399.167 910.5 395.833 910.5 392.5 910.5C392.5 900.167 392.5 889.833 392.5 879.5Z" fill="#333366"/>
<path fill-rule="evenodd" clip-rule="evenodd" d="M897.5 925.5C779.833 925.5 662.167 925.5 544.5 925.5C544.5 919.167 544.5 912.833 544.5 906.5C662.167 906.5 779.833 906.5 897.5 906.5C897.5 912.833 897.5 919.167 897.5 925.5Z" fill="#333366" fill-opacity="0.5"/>
<path opacity="0.989" fill-rule="evenodd" clip-rule="evenodd" d="M954.5 921.5C1011.23 930.707 1050.23 962.04 1071.5 1015.5C1086.94 1068.67 1076.6 1116.01 1040.5 1157.5C1033.86 1162.8 1027.53 1168.47 1021.5 1174.5C973.26 1206.53 922.927 1210.03 870.5 1185C850.732 1174.24 834.399 1159.57 821.5 1141C817.179 1140.5 812.846 1140.33 808.5 1140.5C808.5 1137.17 808.5 1133.83 808.5 1130.5C810.604 1130.8 812.604 1130.47 814.5 1129.5C805.749 1113.91 800.416 1097.25 798.5 1079.5C795.99 1058.81 797.656 1038.47 803.5 1018.5C806.182 1011.46 809.182 1004.46 812.5 997.5C817.085 988.658 822.418 980.325 828.5 972.5C834.806 965.86 841.139 959.193 847.5 952.5C854.662 947.522 861.996 942.689 869.5 938C877.573 933.811 885.906 930.311 894.5 927.5C895.995 927.011 897.329 926.345 898.5 925.5C916.89 920.622 935.556 919.289 954.5 921.5Z" fill="#ACBFC6"/>
<path fill-rule="evenodd" clip-rule="evenodd" d="M544.5 925.5C662.167 925.5 779.833 925.5 897.5 925.5C897.833 925.5 898.167 925.5 898.5 925.5C897.329 926.345 895.995 927.011 894.5 927.5C777.833 926.833 661.167 926.167 544.5 925.5Z" fill="#E3E9EC"/>
<path opacity="0.822" fill-rule="evenodd" clip-rule="evenodd" d="M392.5 938.5C395.833 938.5 399.167 938.5 402.5 938.5C402.5 948.5 402.5 958.5 402.5 968.5C399.167 968.5 395.833 968.5 392.5 968.5C392.5 958.5 392.5 948.5 392.5 938.5Z" fill="#333366"/>
<path fill-rule="evenodd" clip-rule="evenodd" d="M847.5 952.5C841.139 959.193 834.806 965.86 828.5 972.5C734.001 971.501 639.335 971.167 544.5 971.5C544.5 965.167 544.5 958.833 544.5 952.5C645.5 952.5 746.5 952.5 847.5 952.5Z" fill="#333366" fill-opacity="0.5"/>
<path fill-rule="evenodd" clip-rule="evenodd" d="M955.5 955.5C955.5 982.167 955.5 1008.83 955.5 1035.5C951.162 1058.67 937.495 1072.84 914.5 1078C887.169 1078.5 859.835 1078.67 832.5 1078.5C828.432 1057.2 831.098 1036.87 840.5 1017.5C859.5 1017.5 878.5 1017.5 897.5 1017.5C897.5 1010.83 897.5 1004.17 897.5 997.5C882.324 997.829 867.324 997.496 852.5 996.5C859.332 987.502 867.332 979.668 876.5 973C883.385 971.575 890.385 971.075 897.5 971.5C897.18 968.102 897.513 964.768 898.5 961.5C905.548 958.404 912.881 956.238 920.5 955C932.193 954.254 943.86 954.42 955.5 955.5Z" fill="#CDD8DD"/>
<path fill-rule="evenodd" clip-rule="evenodd" d="M955.5 955.5C999.496 965.164 1028.16 991.497 1041.5 1034.5C1012.88 1035.48 984.211 1035.82 955.5 1035.5C955.5 1008.83 955.5 982.167 955.5 955.5Z" fill="#B9C9CE"/>
<path opacity="0.873" fill-rule="evenodd" clip-rule="evenodd" d="M277.5 960.5C297.013 958.854 308.013 967.687 310.5 987C309 1003.17 300.167 1012 284 1013.5C261.513 1009.54 253.513 996.539 260 974.5C264.237 967.755 270.071 963.088 277.5 960.5ZM280.5 969.5C297.858 971.025 303.691 980.025 298 996.5C291.356 1003.96 283.522 1005.46 274.5 1001C264.827 992.638 264.16 983.638 272.5 974C275.099 972.205 277.766 970.705 280.5 969.5Z" fill="#333366" fill-opacity="0.62"/>
<path opacity="0.822" fill-rule="evenodd" clip-rule="evenodd" d="M392.5 997.5C395.833 997.5 399.167 997.5 402.5 997.5C402.5 1007.5 402.5 1017.5 402.5 1027.5C399.167 1027.5 395.833 1027.5 392.5 1027.5C392.5 1017.5 392.5 1007.5 392.5 997.5Z" fill="#333366"/>
<path fill-rule="evenodd" clip-rule="evenodd" d="M812.5 997.5C809.182 1004.46 806.182 1011.46 803.5 1018.5C717.335 1017.5 631.002 1017.17 544.5 1017.5C544.5 1010.83 544.5 1004.17 544.5 997.5C633.833 997.5 723.167 997.5 812.5 997.5Z" fill="#333366" fill-opacity="0.5"/>
<path fill-rule="evenodd" clip-rule="evenodd" d="M852.5 996.5C867.324 997.496 882.324 997.829 897.5 997.5C897.5 1004.17 897.5 1010.83 897.5 1017.5C878.5 1017.5 859.5 1017.5 840.5 1017.5C843.239 1009.68 847.239 1002.68 852.5 996.5Z" fill="#B8C9CD"/>
<path opacity="0.302" fill-rule="evenodd" clip-rule="evenodd" d="M1041.5 1034.5C1050.61 1081.08 1036.61 1118.92 999.5 1148C957.578 1174.28 915.911 1173.95 874.5 1147C851.971 1129.45 837.971 1106.62 832.5 1078.5C859.835 1078.67 887.169 1078.5 914.5 1078C937.495 1072.84 951.162 1058.67 955.5 1035.5C984.211 1035.82 1012.88 1035.48 1041.5 1034.5Z" fill="#8AA5AE"/>
<path opacity="0.795" fill-rule="evenodd" clip-rule="evenodd" d="M392.5 1055.5C395.833 1055.5 399.167 1055.5 402.5 1055.5C402.5 1065.83 402.5 1076.17 402.5 1086.5C399.167 1086.5 395.833 1086.5 392.5 1086.5C392.5 1076.17 392.5 1065.83 392.5 1055.5Z" fill="#333366"/>
<path opacity="0.988" fill-rule="evenodd" clip-rule="evenodd" d="M867.5 1090.5C870.5 1090.5 873.5 1090.5 876.5 1090.5C876.77 1101.96 873.103 1111.96 865.5 1120.5C863.167 1118.83 861.167 1116.83 859.5 1114.5C864.77 1107.36 867.437 1099.36 867.5 1090.5Z" fill="#A5B8BE"/>
<path opacity="0.836" fill-rule="evenodd" clip-rule="evenodd" d="M407.5 1110.5C413.557 1117.46 420.724 1123.13 429 1127.5C428.436 1130.53 427.436 1133.53 426 1136.5C415.401 1132.23 406.901 1125.4 400.5 1116C403.02 1114.3 405.353 1112.47 407.5 1110.5Z" fill="#333366"/>
<path opacity="0.795" fill-rule="evenodd" clip-rule="evenodd" d="M455.5 1130.5C465.833 1130.5 476.167 1130.5 486.5 1130.5C486.5 1133.83 486.5 1137.17 486.5 1140.5C476.167 1140.5 465.833 1140.5 455.5 1140.5C455.5 1137.17 455.5 1133.83 455.5 1130.5Z" fill="#333366"/>
<path opacity="0.822" fill-rule="evenodd" clip-rule="evenodd" d="M514.5 1130.5C524.5 1130.5 534.5 1130.5 544.5 1130.5C544.5 1133.83 544.5 1137.17 544.5 1140.5C534.5 1140.5 524.5 1140.5 514.5 1140.5C514.5 1137.17 514.5 1133.83 514.5 1130.5Z" fill="#333366"/>
<path opacity="0.822" fill-rule="evenodd" clip-rule="evenodd" d="M573.5 1130.5C583.5 1130.5 593.5 1130.5 603.5 1130.5C603.5 1133.83 603.5 1137.17 603.5 1140.5C593.5 1140.5 583.5 1140.5 573.5 1140.5C573.5 1137.17 573.5 1133.83 573.5 1130.5Z" fill="#333366"/>
<path opacity="0.822" fill-rule="evenodd" clip-rule="evenodd" d="M632.5 1130.5C642.5 1130.5 652.5 1130.5 662.5 1130.5C662.5 1133.83 662.5 1137.17 662.5 1140.5C652.5 1140.5 642.5 1140.5 632.5 1140.5C632.5 1137.17 632.5 1133.83 632.5 1130.5Z" fill="#333366"/>
<path opacity="0.795" fill-rule="evenodd" clip-rule="evenodd" d="M690.5 1130.5C700.833 1130.5 711.167 1130.5 721.5 1130.5C721.5 1133.83 721.5 1137.17 721.5 1140.5C711.167 1140.5 700.833 1140.5 690.5 1140.5C690.5 1137.17 690.5 1133.83 690.5 1130.5Z" fill="#333366"/>
<path opacity="0.822" fill-rule="evenodd" clip-rule="evenodd" d="M749.5 1130.5C759.5 1130.5 769.5 1130.5 779.5 1130.5C779.5 1133.83 779.5 1137.17 779.5 1140.5C769.5 1140.5 759.5 1140.5 749.5 1140.5C749.5 1137.17 749.5 1133.83 749.5 1130.5Z" fill="#333366"/>
<path opacity="0.972" fill-rule="evenodd" clip-rule="evenodd" d="M1040.5 1157.5C1044.48 1161.14 1048.48 1164.81 1052.5 1168.5C1055.54 1166.29 1058.71 1164.29 1062 1162.5C1065.84 1164.09 1069.17 1166.42 1072 1169.5C1113 1217.83 1154 1266.17 1195 1314.5C1197.54 1345.29 1184.04 1356.12 1154.5 1347C1110.6 1297.85 1066.93 1248.52 1023.5 1199C1026.83 1195 1030.17 1191 1033.5 1187C1029.3 1182.96 1025.3 1178.8 1021.5 1174.5C1027.53 1168.47 1033.86 1162.8 1040.5 1157.5Z" fill="#8AA5B0"/>
</svg>
